<?xml version="1.0" standalone="no"?><svg viewBox="0 0 1000 800" xmlns="http://www.w3.org/2000/svg" version="1.1"><path stroke="black" stroke-width="0.5" d="M 0 400 L 2 400 L 4 400 L 6 400 L 8 400 L 10 400 L 12 400 L 14 400 L 16 400 L 18 400 L 20 399 L 22 399 L 24 399 L 26 399 L 28 400 L 30 400 L 32 400 L 34 399 L 36 399 L 38 399 L 40 400 L 42 399 L 44 397 L 46 397 L 48 397 L 50 398 L 52 398 L 54 399 L 56 397 L 58 397 L 60 398 L 62 400 L 64 399 L 66 399 L 68 399 L 70 398 L 72 399 L 74 400 L 76 399 L 78 398 L 80 398 L 82 399 L 84 398 L 86 398 L 88 398 L 90 398 L 92 397 L 94 397 L 96 397 L 98 398 L 100 396 L 102 397 L 104 397 L 106 396 L 108 396 L 110 394 L 112 396 L 114 396 L 116 394 L 118 395 L 120 397 L 122 397 L 124 397 L 126 396 L 128 395 L 130 393 L 132 394 L 134 396 L 136 396 L 138 396 L 140 396 L 142 396 L 144 396 L 146 394 L 148 391 L 150 388 L 152 388 L 154 387 L 156 388 L 158 386 L 160 386 L 162 389 L 164 387 L 166 387 L 168 385 L 170 384 L 172 383 L 174 377 L 176 372 L 178 369 L 180 367 L 182 365 L 184 356 L 186 355 L 188 346 L 190 352 L 192 345 L 194 348 L 196 346 L 198 345 L 200 347 L 202 342 L 204 350 L 206 341 L 208 343 L 210 340 L 212 336 L 214 338 L 216 340 L 218 333 L 220 334 L 222 334 L 224 331 L 226 336 L 228 333 L 230 344 L 232 344 L 234 355 L 236 367 L 238 375 L 240 387 L 242 388 L 244 375 L 246 367 L 248 366 L 250 369 L 252 380 L 254 390 L 256 390 L 258 387 L 260 388 L 262 389 L 264 389 L 266 382 L 268 380 L 270 378 L 272 389 L 274 394 L 276 393 L 278 392 L 280 395 L 282 394 L 284 391 L 286 387 L 288 391 L 290 391 L 292 387 L 294 388 L 296 388 L 298 390 L 300 388 L 302 385 L 304 386 L 306 383 L 308 384 L 310 385 L 312 379 L 314 380 L 316 379 L 318 382 L 320 377 L 322 379 L 324 378 L 326 375 L 328 376 L 330 374 L 332 373 L 334 372 L 336 371 L 338 366 L 340 357 L 342 355 L 344 352 L 346 351 L 348 353 L 350 349 L 352 354 L 354 350 L 356 351 L 358 360 L 360 363 L 362 365 L 364 369 L 366 369 L 368 367 L 370 368 L 372 369 L 374 366 L 376 364 L 378 361 L 380 366 L 382 361 L 384 362 L 386 364 L 388 369 L 390 366 L 392 366 L 394 364 L 396 362 L 398 365 L 400 369 L 402 372 L 404 374 L 406 374 L 408 374 L 410 374 L 412 377 L 414 378 L 416 380 L 418 379 L 420 381 L 422 378 L 424 377 L 426 378 L 428 381 L 430 382 L 432 382 L 434 380 L 436 380 L 438 382 L 440 381 L 442 382 L 444 382 L 446 381 L 448 379 L 450 378 L 452 377 L 454 379 L 456 378 L 458 381 L 460 379 L 462 381 L 464 382 L 466 382 L 468 382 L 470 380 L 472 380 L 474 380 L 476 380 L 478 381 L 480 384 L 482 384 L 484 385 L 486 385 L 488 383 L 490 384 L 492 384 L 494 388 L 496 387 L 498 389 L 500 390 L 502 390 L 504 391 L 506 391 L 508 391 L 510 390 L 512 389 L 514 391 L 516 390 L 518 389 L 520 388 L 522 387 L 524 385 L 526 384 L 528 384 L 530 383 L 532 384 L 534 381 L 536 382 L 538 380 L 540 381 L 542 380 L 544 380 L 546 378 L 548 379 L 550 377 L 552 380 L 554 378 L 556 379 L 558 377 L 560 376 L 562 375 L 564 372 L 566 375 L 568 373 L 570 374 L 572 374 L 574 376 L 576 377 L 578 376 L 580 376 L 582 377 L 584 377 L 586 378 L 588 378 L 590 379 L 592 379 L 594 380 L 596 379 L 598 377 L 600 379 L 602 381 L 604 377 L 606 379 L 608 379 L 610 377 L 612 379 L 614 378 L 616 380 L 618 380 L 620 381 L 622 379 L 624 379 L 626 380 L 628 379 L 630 379 L 632 378 L 634 378 L 636 381 L 638 379 L 640 379 L 642 376 L 644 378 L 646 376 L 648 377 L 650 377 L 652 379 L 654 376 L 656 380 L 658 378 L 660 380 L 662 375 L 664 374 L 666 377 L 668 382 L 670 376 L 672 372 L 674 368 L 676 370 L 678 369 L 680 365 L 682 353 L 684 353 L 686 349 L 688 352 L 690 349 L 692 346 L 694 346 L 696 346 L 698 352 L 700 356 L 702 365 L 704 362 L 706 367 L 708 374 L 710 368 L 712 364 L 714 379 L 716 381 L 718 378 L 720 382 L 722 384 L 724 384 L 726 385 L 728 389 L 730 389 L 732 383 L 734 377 L 736 371 L 738 370 L 740 361 L 742 366 L 744 362 L 746 364 L 748 360 L 750 352 L 752 354 L 754 353 L 756 360 L 758 360 L 760 364 L 762 371 L 764 369 L 766 373 L 768 366 L 770 365 L 772 363 L 774 357 L 776 369 L 778 360 L 780 368 L 782 357 L 784 362 L 786 362 L 788 362 L 790 367 L 792 370 L 794 373 L 796 371 L 798 374 L 800 367 L 802 371 L 804 370 L 806 372 L 808 374 L 810 377 L 812 377 L 814 380 L 816 380 L 818 379 L 820 383 L 822 382 L 824 384 L 826 383 L 828 386 L 830 389 L 832 389 L 834 390 L 836 390 L 838 391 L 840 390 L 842 391 L 844 390 L 846 391 L 848 391 L 850 391 L 852 391 L 854 391 L 856 391 L 858 391 L 860 392 L 862 392 L 864 393 L 866 393 L 868 394 L 870 395 L 872 395 L 874 395 L 876 396 L 878 396 L 880 395 L 882 395 L 884 393 L 886 395 L 888 397 L 890 397 L 892 396 L 894 396 L 896 395 L 898 395 L 900 396 L 902 397 L 904 396 L 906 396 L 908 397 L 910 396 L 912 395 L 914 397 L 916 399 L 918 398 L 920 397 L 922 398 L 924 398 L 926 399 L 928 397 L 930 395 L 932 396 L 934 398 L 936 399 L 938 400 L 940 399 L 942 398 L 944 396 L 946 398 L 948 400 L 950 400 L 952 399 L 954 400 L 956 399 L 958 399 L 960 400 L 962 400 L 964 400 L 966 400 L 968 400 L 970 399 L 972 399 L 974 399 L 976 400 L 978 399 L 980 399 L 982 399 L 984 400 L 986 400 L 988 400 L 990 400 L 992 400 L 994 400 L 996 400 L 998 400 L 1000 400 L 1000 400L 1000 400 L 998 400 L 996 400 L 994 400 L 992 400 L 990 400 L 988 400 L 986 400 L 984 400 L 982 401 L 980 401 L 978 401 L 976 400 L 974 401 L 972 401 L 970 401 L 968 400 L 966 400 L 964 400 L 962 400 L 960 400 L 958 401 L 956 401 L 954 400 L 952 401 L 950 400 L 948 400 L 946 402 L 944 404 L 942 402 L 940 401 L 938 400 L 936 401 L 934 402 L 932 404 L 930 405 L 928 403 L 926 401 L 924 402 L 922 402 L 920 403 L 918 402 L 916 401 L 914 403 L 912 405 L 910 404 L 908 403 L 906 404 L 904 404 L 902 403 L 900 404 L 898 405 L 896 405 L 894 404 L 892 404 L 890 403 L 888 403 L 886 405 L 884 407 L 882 405 L 880 405 L 878 404 L 876 404 L 874 405 L 872 405 L 870 405 L 868 406 L 866 407 L 864 407 L 862 408 L 860 408 L 858 409 L 856 409 L 854 409 L 852 409 L 850 409 L 848 409 L 846 409 L 844 410 L 842 409 L 840 410 L 838 409 L 836 410 L 834 410 L 832 411 L 830 411 L 828 414 L 826 417 L 824 416 L 822 418 L 820 417 L 818 421 L 816 420 L 814 420 L 812 423 L 810 423 L 808 426 L 806 428 L 804 430 L 802 429 L 800 433 L 798 426 L 796 429 L 794 427 L 792 430 L 790 433 L 788 438 L 786 438 L 784 438 L 782 443 L 780 432 L 778 440 L 776 431 L 774 443 L 772 437 L 770 435 L 768 434 L 766 427 L 764 431 L 762 429 L 760 436 L 758 440 L 756 440 L 754 447 L 752 446 L 750 448 L 748 440 L 746 436 L 744 438 L 742 434 L 740 439 L 738 430 L 736 429 L 734 423 L 732 417 L 730 411 L 728 411 L 726 415 L 724 416 L 722 416 L 720 418 L 718 422 L 716 419 L 714 421 L 712 436 L 710 432 L 708 426 L 706 433 L 704 438 L 702 435 L 700 444 L 698 448 L 696 454 L 694 454 L 692 454 L 690 451 L 688 448 L 686 451 L 684 447 L 682 447 L 680 435 L 678 431 L 676 430 L 674 432 L 672 428 L 670 424 L 668 418 L 666 423 L 664 426 L 662 425 L 660 420 L 658 422 L 656 420 L 654 424 L 652 421 L 650 423 L 648 423 L 646 424 L 644 422 L 642 424 L 640 421 L 638 421 L 636 419 L 634 422 L 632 422 L 630 421 L 628 421 L 626 420 L 624 421 L 622 421 L 620 419 L 618 420 L 616 420 L 614 422 L 612 421 L 610 423 L 608 421 L 606 421 L 604 423 L 602 419 L 600 421 L 598 423 L 596 421 L 594 420 L 592 421 L 590 421 L 588 422 L 586 422 L 584 423 L 582 423 L 580 424 L 578 424 L 576 423 L 574 424 L 572 426 L 570 426 L 568 427 L 566 425 L 564 428 L 562 425 L 560 424 L 558 423 L 556 421 L 554 422 L 552 420 L 550 423 L 548 421 L 546 422 L 544 420 L 542 420 L 540 419 L 538 420 L 536 418 L 534 419 L 532 416 L 530 417 L 528 416 L 526 416 L 524 415 L 522 413 L 520 412 L 518 411 L 516 410 L 514 409 L 512 411 L 510 410 L 508 409 L 506 409 L 504 409 L 502 410 L 500 410 L 498 411 L 496 413 L 494 412 L 492 416 L 490 416 L 488 417 L 486 415 L 484 415 L 482 416 L 480 416 L 478 419 L 476 420 L 474 420 L 472 420 L 470 420 L 468 418 L 466 418 L 464 418 L 462 419 L 460 421 L 458 419 L 456 422 L 454 421 L 452 423 L 450 422 L 448 421 L 446 419 L 444 418 L 442 418 L 440 419 L 438 418 L 436 420 L 434 420 L 432 418 L 430 418 L 428 419 L 426 422 L 424 423 L 422 422 L 420 419 L 418 421 L 416 420 L 414 422 L 412 423 L 410 426 L 408 426 L 406 426 L 404 426 L 402 428 L 400 431 L 398 435 L 396 438 L 394 436 L 392 434 L 390 434 L 388 431 L 386 436 L 384 438 L 382 439 L 380 434 L 378 439 L 376 436 L 374 434 L 372 431 L 370 432 L 368 433 L 366 431 L 364 431 L 362 435 L 360 437 L 358 440 L 356 449 L 354 450 L 352 446 L 350 451 L 348 447 L 346 449 L 344 448 L 342 445 L 340 443 L 338 434 L 336 429 L 334 428 L 332 427 L 330 426 L 328 424 L 326 425 L 324 422 L 322 421 L 320 423 L 318 418 L 316 421 L 314 420 L 312 421 L 310 415 L 308 416 L 306 417 L 304 414 L 302 415 L 300 412 L 298 410 L 296 412 L 294 412 L 292 413 L 290 409 L 288 409 L 286 413 L 284 409 L 282 406 L 280 405 L 278 408 L 276 407 L 274 406 L 272 411 L 270 422 L 268 420 L 266 418 L 264 411 L 262 411 L 260 412 L 258 413 L 256 410 L 254 410 L 252 420 L 250 431 L 248 434 L 246 433 L 244 425 L 242 412 L 240 413 L 238 425 L 236 433 L 234 445 L 232 456 L 230 456 L 228 467 L 226 464 L 224 469 L 222 466 L 220 466 L 218 467 L 216 460 L 214 462 L 212 464 L 210 460 L 208 457 L 206 459 L 204 450 L 202 458 L 200 453 L 198 455 L 196 454 L 194 452 L 192 455 L 190 448 L 188 454 L 186 445 L 184 444 L 182 435 L 180 433 L 178 431 L 176 428 L 174 423 L 172 417 L 170 416 L 168 415 L 166 413 L 164 413 L 162 411 L 160 414 L 158 414 L 156 412 L 154 413 L 152 412 L 150 412 L 148 409 L 146 406 L 144 404 L 142 404 L 140 404 L 138 404 L 136 404 L 134 404 L 132 406 L 130 407 L 128 405 L 126 404 L 124 403 L 122 403 L 120 403 L 118 405 L 116 406 L 114 404 L 112 404 L 110 406 L 108 404 L 106 404 L 104 403 L 102 403 L 100 404 L 98 402 L 96 403 L 94 403 L 92 403 L 90 402 L 88 402 L 86 402 L 84 402 L 82 401 L 80 402 L 78 402 L 76 401 L 74 400 L 72 401 L 70 402 L 68 401 L 66 401 L 64 401 L 62 400 L 60 402 L 58 403 L 56 403 L 54 401 L 52 402 L 50 402 L 48 403 L 46 403 L 44 403 L 42 401 L 40 400 L 38 401 L 36 401 L 34 401 L 32 400 L 30 400 L 28 400 L 26 401 L 24 401 L 22 401 L 20 401 L 18 400 L 16 400 L 14 400 L 12 400 L 10 400 L 8 400 L 6 400 L 4 400 L 2 400 Z" /></svg>