<?xml version="1.0" standalone="no"?><svg viewBox="0 0 1200 500" xmlns="http://www.w3.org/2000/svg" version="1.1"><path stroke="black" stroke-width="1" d="M 0 250 L 2 250 L 4 250 L 6 250 L 8 250 L 10 250 L 12 250 L 14 250 L 16 250 L 18 250 L 20 250 L 22 250 L 24 250 L 26 249 L 28 249 L 30 249 L 32 249 L 34 250 L 36 250 L 38 250 L 40 249 L 42 249 L 44 249 L 46 250 L 48 250 L 50 249 L 52 248 L 54 248 L 56 248 L 58 248 L 60 249 L 62 249 L 64 249 L 66 249 L 68 248 L 70 248 L 72 249 L 74 250 L 76 250 L 78 249 L 80 250 L 82 250 L 84 249 L 86 249 L 88 250 L 90 250 L 92 250 L 94 249 L 96 249 L 98 249 L 100 249 L 102 249 L 104 249 L 106 249 L 108 249 L 110 248 L 112 248 L 114 248 L 116 248 L 118 249 L 120 248 L 122 248 L 124 248 L 126 248 L 128 248 L 130 247 L 132 246 L 134 247 L 136 247 L 138 247 L 140 246 L 142 247 L 144 248 L 146 248 L 148 248 L 150 248 L 152 248 L 154 247 L 156 246 L 158 246 L 160 247 L 162 248 L 164 248 L 166 248 L 168 248 L 170 247 L 172 248 L 174 246 L 176 246 L 178 244 L 180 242 L 182 243 L 184 243 L 186 240 L 188 243 L 190 242 L 192 241 L 194 244 L 196 242 L 198 243 L 200 240 L 202 241 L 204 240 L 206 239 L 208 238 L 210 233 L 212 232 L 214 231 L 216 230 L 218 227 L 220 226 L 222 222 L 224 220 L 226 217 L 228 218 L 230 218 L 232 217 L 234 215 L 236 217 L 238 216 L 240 216 L 242 213 L 244 218 L 246 212 L 248 216 L 250 214 L 252 213 L 254 206 L 256 215 L 258 212 L 260 210 L 262 209 L 264 208 L 266 211 L 268 209 L 270 209 L 272 205 L 274 215 L 276 213 L 278 215 L 280 222 L 282 221 L 284 232 L 286 237 L 288 242 L 290 243 L 292 236 L 294 233 L 296 227 L 298 229 L 300 232 L 302 235 L 304 244 L 306 244 L 308 243 L 310 241 L 312 243 L 314 243 L 316 244 L 318 240 L 320 239 L 322 236 L 324 237 L 326 243 L 328 245 L 330 246 L 332 245 L 334 246 L 336 247 L 338 246 L 340 245 L 342 243 L 344 243 L 346 244 L 348 244 L 350 244 L 352 242 L 354 242 L 356 244 L 358 244 L 360 242 L 362 241 L 364 242 L 366 240 L 368 240 L 370 240 L 372 240 L 374 238 L 376 237 L 378 237 L 380 237 L 382 238 L 384 236 L 386 236 L 388 236 L 390 236 L 392 234 L 394 233 L 396 235 L 398 233 L 400 233 L 402 232 L 404 229 L 406 228 L 408 226 L 410 225 L 412 220 L 414 218 L 416 221 L 418 218 L 420 219 L 422 220 L 424 217 L 426 220 L 428 224 L 430 224 L 432 227 L 434 230 L 436 228 L 438 232 L 440 230 L 442 231 L 444 228 L 446 231 L 448 230 L 450 227 L 452 227 L 454 225 L 456 228 L 458 225 L 460 225 L 462 226 L 464 233 L 466 229 L 468 230 L 470 227 L 472 229 L 474 227 L 476 226 L 478 229 L 480 231 L 482 233 L 484 233 L 486 232 L 488 234 L 490 235 L 492 234 L 494 234 L 496 238 L 498 236 L 500 236 L 502 237 L 504 241 L 506 236 L 508 236 L 510 236 L 512 237 L 514 237 L 516 240 L 518 237 L 520 239 L 522 238 L 524 237 L 526 239 L 528 239 L 530 238 L 532 240 L 534 237 L 536 235 L 538 240 L 540 235 L 542 236 L 544 237 L 546 236 L 548 236 L 550 240 L 552 236 L 554 239 L 556 239 L 558 238 L 560 239 L 562 238 L 564 239 L 566 238 L 568 238 L 570 238 L 572 238 L 574 238 L 576 240 L 578 240 L 580 239 L 582 242 L 584 240 L 586 240 L 588 239 L 590 240 L 592 241 L 594 242 L 596 242 L 598 245 L 600 243 L 602 244 L 604 244 L 606 244 L 608 243 L 610 245 L 612 243 L 614 244 L 616 243 L 618 243 L 620 244 L 622 242 L 624 242 L 626 243 L 628 241 L 630 240 L 632 241 L 634 240 L 636 239 L 638 240 L 640 239 L 642 238 L 644 238 L 646 238 L 648 239 L 650 237 L 652 237 L 654 237 L 656 236 L 658 238 L 660 236 L 662 237 L 664 238 L 666 236 L 668 236 L 670 235 L 672 234 L 674 234 L 676 233 L 678 233 L 680 233 L 682 236 L 684 233 L 686 234 L 688 235 L 690 235 L 692 236 L 694 235 L 696 234 L 698 235 L 700 237 L 702 235 L 704 237 L 706 236 L 708 237 L 710 236 L 712 236 L 714 237 L 716 237 L 718 237 L 720 237 L 722 238 L 724 235 L 726 237 L 728 236 L 730 237 L 732 236 L 734 237 L 736 238 L 738 237 L 740 236 L 742 237 L 744 237 L 746 238 L 748 237 L 750 237 L 752 236 L 754 237 L 756 236 L 758 238 L 760 237 L 762 236 L 764 236 L 766 237 L 768 237 L 770 236 L 772 236 L 774 237 L 776 235 L 778 237 L 780 234 L 782 236 L 784 234 L 786 235 L 788 236 L 790 238 L 792 237 L 794 236 L 796 235 L 798 235 L 800 236 L 802 237 L 804 234 L 806 231 L 808 232 L 810 231 L 812 231 L 814 226 L 816 225 L 818 223 L 820 221 L 822 221 L 824 218 L 826 215 L 828 218 L 830 219 L 832 216 L 834 215 L 836 220 L 838 221 L 840 223 L 842 228 L 844 227 L 846 231 L 848 229 L 850 229 L 852 230 L 854 230 L 856 235 L 858 238 L 860 240 L 862 239 L 864 238 L 866 238 L 868 240 L 870 242 L 872 242 L 874 242 L 876 241 L 878 240 L 880 236 L 882 234 L 884 230 L 886 228 L 888 228 L 890 229 L 892 228 L 894 223 L 896 227 L 898 223 L 900 222 L 902 220 L 904 223 L 906 220 L 908 225 L 910 228 L 912 230 L 914 231 L 916 230 L 918 232 L 920 231 L 922 232 L 924 227 L 926 223 L 928 226 L 930 225 L 932 231 L 934 229 L 936 223 L 938 225 L 940 225 L 942 228 L 944 224 L 946 231 L 948 228 L 950 233 L 952 231 L 954 235 L 956 229 L 958 232 L 960 232 L 962 232 L 964 229 L 966 232 L 968 233 L 970 237 L 972 235 L 974 236 L 976 237 L 978 239 L 980 236 L 982 239 L 984 239 L 986 239 L 988 240 L 990 240 L 992 241 L 994 242 L 996 243 L 998 244 L 1000 244 L 1002 243 L 1004 244 L 1006 245 L 1008 244 L 1010 244 L 1012 244 L 1014 244 L 1016 245 L 1018 243 L 1020 245 L 1022 244 L 1024 244 L 1026 244 L 1028 245 L 1030 244 L 1032 245 L 1034 246 L 1036 246 L 1038 246 L 1040 246 L 1042 247 L 1044 246 L 1046 247 L 1048 247 L 1050 248 L 1052 247 L 1054 248 L 1056 247 L 1058 246 L 1060 246 L 1062 246 L 1064 248 L 1066 248 L 1068 248 L 1070 247 L 1072 247 L 1074 247 L 1076 247 L 1078 247 L 1080 248 L 1082 248 L 1084 248 L 1086 247 L 1088 248 L 1090 248 L 1092 247 L 1094 247 L 1096 248 L 1098 249 L 1100 249 L 1102 248 L 1104 248 L 1106 249 L 1108 249 L 1110 250 L 1112 249 L 1114 247 L 1116 247 L 1118 248 L 1120 248 L 1122 249 L 1124 250 L 1126 250 L 1128 249 L 1130 248 L 1132 248 L 1134 248 L 1136 250 L 1138 250 L 1140 250 L 1142 250 L 1144 250 L 1146 249 L 1148 249 L 1150 249 L 1152 250 L 1154 250 L 1156 250 L 1158 250 L 1160 250 L 1162 250 L 1164 249 L 1166 249 L 1168 249 L 1170 250 L 1172 250 L 1174 249 L 1176 249 L 1178 249 L 1180 250 L 1182 250 L 1184 250 L 1186 250 L 1188 250 L 1190 250 L 1192 250 L 1194 250 L 1196 250 L 1198 250 L 1200 250L 1198 250 L 1196 250 L 1194 250 L 1192 250 L 1190 250 L 1188 250 L 1186 250 L 1184 250 L 1182 250 L 1180 250 L 1178 251 L 1176 251 L 1174 251 L 1172 250 L 1170 250 L 1168 251 L 1166 251 L 1164 251 L 1162 250 L 1160 250 L 1158 250 L 1156 250 L 1154 250 L 1152 250 L 1150 251 L 1148 251 L 1146 251 L 1144 250 L 1142 250 L 1140 250 L 1138 250 L 1136 250 L 1134 252 L 1132 252 L 1130 252 L 1128 251 L 1126 250 L 1124 250 L 1122 251 L 1120 252 L 1118 252 L 1116 253 L 1114 253 L 1112 251 L 1110 250 L 1108 251 L 1106 251 L 1104 252 L 1102 252 L 1100 251 L 1098 251 L 1096 252 L 1094 253 L 1092 253 L 1090 252 L 1088 252 L 1086 253 L 1084 252 L 1082 252 L 1080 252 L 1078 253 L 1076 253 L 1074 253 L 1072 253 L 1070 253 L 1068 252 L 1066 252 L 1064 252 L 1062 254 L 1060 254 L 1058 254 L 1056 253 L 1054 252 L 1052 253 L 1050 252 L 1048 253 L 1046 253 L 1044 254 L 1042 253 L 1040 254 L 1038 254 L 1036 254 L 1034 254 L 1032 255 L 1030 256 L 1028 255 L 1026 256 L 1024 256 L 1022 256 L 1020 255 L 1018 257 L 1016 255 L 1014 256 L 1012 256 L 1010 256 L 1008 256 L 1006 255 L 1004 256 L 1002 257 L 1000 256 L 998 256 L 996 257 L 994 258 L 992 259 L 990 260 L 988 260 L 986 261 L 984 261 L 982 261 L 980 264 L 978 261 L 976 263 L 974 264 L 972 265 L 970 263 L 968 267 L 966 268 L 964 271 L 962 268 L 960 268 L 958 268 L 956 271 L 954 265 L 952 269 L 950 267 L 948 272 L 946 269 L 944 276 L 942 272 L 940 275 L 938 275 L 936 277 L 934 271 L 932 269 L 930 275 L 928 274 L 926 277 L 924 273 L 922 268 L 920 269 L 918 268 L 916 270 L 914 269 L 912 270 L 910 272 L 908 275 L 906 280 L 904 277 L 902 280 L 900 278 L 898 277 L 896 273 L 894 277 L 892 272 L 890 271 L 888 272 L 886 272 L 884 270 L 882 266 L 880 264 L 878 260 L 876 259 L 874 258 L 872 258 L 870 258 L 868 260 L 866 262 L 864 262 L 862 261 L 860 260 L 858 262 L 856 265 L 854 270 L 852 270 L 850 271 L 848 271 L 846 269 L 844 273 L 842 272 L 840 277 L 838 279 L 836 280 L 834 285 L 832 284 L 830 281 L 828 282 L 826 285 L 824 282 L 822 279 L 820 279 L 818 277 L 816 275 L 814 274 L 812 269 L 810 269 L 808 268 L 806 269 L 804 266 L 802 263 L 800 264 L 798 265 L 796 265 L 794 264 L 792 263 L 790 262 L 788 264 L 786 265 L 784 266 L 782 264 L 780 266 L 778 263 L 776 265 L 774 263 L 772 264 L 770 264 L 768 263 L 766 263 L 764 264 L 762 264 L 760 263 L 758 262 L 756 264 L 754 263 L 752 264 L 750 263 L 748 263 L 746 262 L 744 263 L 742 263 L 740 264 L 738 263 L 736 262 L 734 263 L 732 264 L 730 263 L 728 264 L 726 263 L 724 265 L 722 262 L 720 263 L 718 263 L 716 263 L 714 263 L 712 264 L 710 264 L 708 263 L 706 264 L 704 263 L 702 265 L 700 263 L 698 265 L 696 266 L 694 265 L 692 264 L 690 265 L 688 265 L 686 266 L 684 267 L 682 264 L 680 267 L 678 267 L 676 267 L 674 266 L 672 266 L 670 265 L 668 264 L 666 264 L 664 262 L 662 263 L 660 264 L 658 262 L 656 264 L 654 263 L 652 263 L 650 263 L 648 261 L 646 262 L 644 262 L 642 262 L 640 261 L 638 260 L 636 261 L 634 260 L 632 259 L 630 260 L 628 259 L 626 257 L 624 258 L 622 258 L 620 256 L 618 257 L 616 257 L 614 256 L 612 257 L 610 255 L 608 257 L 606 256 L 604 256 L 602 256 L 600 257 L 598 255 L 596 258 L 594 258 L 592 259 L 590 260 L 588 261 L 586 260 L 584 260 L 582 258 L 580 261 L 578 260 L 576 260 L 574 262 L 572 262 L 570 262 L 568 262 L 566 262 L 564 261 L 562 262 L 560 261 L 558 262 L 556 261 L 554 261 L 552 264 L 550 260 L 548 264 L 546 264 L 544 263 L 542 264 L 540 265 L 538 260 L 536 265 L 534 263 L 532 260 L 530 262 L 528 261 L 526 261 L 524 263 L 522 262 L 520 261 L 518 263 L 516 260 L 514 263 L 512 263 L 510 264 L 508 264 L 506 264 L 504 259 L 502 263 L 500 264 L 498 264 L 496 262 L 494 266 L 492 266 L 490 265 L 488 266 L 486 268 L 484 267 L 482 267 L 480 269 L 478 271 L 476 274 L 474 273 L 472 271 L 470 273 L 468 270 L 466 271 L 464 267 L 462 274 L 460 275 L 458 275 L 456 272 L 454 275 L 452 273 L 450 273 L 448 270 L 446 269 L 444 272 L 442 269 L 440 270 L 438 268 L 436 272 L 434 270 L 432 273 L 430 276 L 428 276 L 426 280 L 424 283 L 422 280 L 420 281 L 418 282 L 416 279 L 414 282 L 412 280 L 410 275 L 408 274 L 406 272 L 404 271 L 402 268 L 400 267 L 398 267 L 396 265 L 394 267 L 392 266 L 390 264 L 388 264 L 386 264 L 384 264 L 382 262 L 380 263 L 378 263 L 376 263 L 374 262 L 372 260 L 370 260 L 368 260 L 366 260 L 364 258 L 362 259 L 360 258 L 358 256 L 356 256 L 354 258 L 352 258 L 350 256 L 348 256 L 346 256 L 344 257 L 342 257 L 340 255 L 338 254 L 336 253 L 334 254 L 332 255 L 330 254 L 328 255 L 326 257 L 324 263 L 322 264 L 320 261 L 318 260 L 316 256 L 314 257 L 312 257 L 310 259 L 308 257 L 306 256 L 304 256 L 302 265 L 300 268 L 298 271 L 296 273 L 294 267 L 292 264 L 290 257 L 288 258 L 286 263 L 284 268 L 282 279 L 280 278 L 278 285 L 276 287 L 274 285 L 272 295 L 270 291 L 268 291 L 266 289 L 264 292 L 262 291 L 260 290 L 258 288 L 256 285 L 254 294 L 252 287 L 250 286 L 248 284 L 246 288 L 244 282 L 242 287 L 240 284 L 238 284 L 236 283 L 234 285 L 232 283 L 230 282 L 228 282 L 226 283 L 224 280 L 222 278 L 220 274 L 218 273 L 216 270 L 214 269 L 212 268 L 210 267 L 208 262 L 206 261 L 204 260 L 202 259 L 200 260 L 198 257 L 196 258 L 194 256 L 192 259 L 190 258 L 188 257 L 186 260 L 184 257 L 182 257 L 180 258 L 178 256 L 176 254 L 174 254 L 172 252 L 170 253 L 168 252 L 166 252 L 164 252 L 162 252 L 160 253 L 158 254 L 156 254 L 154 253 L 152 252 L 150 252 L 148 252 L 146 252 L 144 252 L 142 253 L 140 254 L 138 253 L 136 253 L 134 253 L 132 254 L 130 253 L 128 252 L 126 252 L 124 252 L 122 252 L 120 252 L 118 251 L 116 252 L 114 252 L 112 252 L 110 252 L 108 251 L 106 251 L 104 251 L 102 251 L 100 251 L 98 251 L 96 251 L 94 251 L 92 250 L 90 250 L 88 250 L 86 251 L 84 251 L 82 250 L 80 250 L 78 251 L 76 250 L 74 250 L 72 251 L 70 252 L 68 252 L 66 251 L 64 251 L 62 251 L 60 251 L 58 252 L 56 252 L 54 252 L 52 252 L 50 251 L 48 250 L 46 250 L 44 251 L 42 251 L 40 251 L 38 250 L 36 250 L 34 250 L 32 251 L 30 251 L 28 251 L 26 251 L 24 250 L 22 250 L 20 250 L 18 250 L 16 250 L 14 250 L 12 250 L 10 250 L 8 250 L 6 250 L 4 250 L 2 250" /></svg>