<svg viewBox="0 0 1000 200" xmlns="http://www.w3.org/2000/svg"><path stroke="#000" stroke-width=".5" d="M0 100h40l10-1h30l10-1 10-1 10-2 10 1h20l10-3 10-4 10 1 10-9 10-9 10-8 10-4 10 3 10 6 10 23 10-6 10 5 10-3 10 7 10 1 10-4h10l10-3 10-2 10-5 10-2 10-2 10 4h10l10-7 10 8 10 6 10-4h10l10-1 10 2 10 1 10 3h20l10 3 10 2 10-1 10-2 10 1 10-5 10-2 10 1 10 2 10 1 10-1 10 1 10 1 10-3 10 2 10-3 10 1 10-2 10-8 10-3h20l10 13 10 5 10-11 10-4h10l10-2 10 3 10 5 10-4 10 9 10 3 10 3 10 1h20l10 1h10l10 1 10 1h30l10 1h60-60l-10 1h-30l-10 1-10 1h-10l-10 1h-20l-10 1-10 3-10 3-10 9-10-4-10 5-10 3-10-2h-10l-10-4-10-11-10 5-10 13h-20l-10-3-10-8-10-2-10 1-10-3-10 2-10-3-10 1-10 1-10-1-10 1-10 2-10 1-10-2-10-5-10 1-10-2-10-1-10 2-10 3h-20l-10 3-10 1-10 2-10-1h-10l-10-4-10 6-10 8-10-7h-10l-10 4-10-2-10-2-10-5-10-2-10-3h-10l-10-4-10 1-10 7-10-3-10 5-10-6-10 23-10 6-10 3-10-4-10-8-10-9-10-9-10 1-10-4-10-3h-20l-10 1-10-2-10-1-10-1H50l-10-1H0z"/></svg>