<svg viewBox="0 0 1000 200" xmlns="http://www.w3.org/2000/svg"><path stroke="#000" stroke-width=".5" d="M0 100h40l2-1h18l2 1 2-1 2 1h2l2-1h2l2 1h2l2-1h10l2-1h8l2-1 2 1h2l2-1 2 1 2-3 2 2 2-1 2 1 2-3 2 2 2 1h4l2-1h2l2-1 2 2h4l2-1 2 1h2l2-1 2-1 2-2 2-1 2-1 2 1h2l2-3 2-1 2 3 2-3h2l2 2 2-2 2-1 2-3 2 1 2-4 2-2 2 1 2-3 2-2 2-3 2-2 2 3 2-1 2-1 2-7 2 3 2-2 2-2 2 1 2-4 2 2 2 3 2-3 2 2 2-1 2 6h2l2-1 2-1 2 2 2 2 2 4 2 12 2 3 2 2 2-2 2-7h2l2 1 2 2 2 3 2 4 2-2h4l2 2 2 1 2-3 2-3h2l2 7 2 1 2-1 2 1 2-1 2 1 2-1h4l2 1 2-4 2 1 2 1h2l2-2h4l2 1 2-1h2l2-1 2 1 2-4 2 3 2-2 2 1 2-1h4l2-2 2 1 2-4 2-1h2l2-1 2-3 2-3 2 3 2 1h2l2-4h2l2 1 2-2 2 3 2-1h2l2 5 2-1 2 1h2l2-1 2-1 2 1 2 1 2-3 2-1 2-3 2 2 2-2 2 3 2 3h4l2 2 2 2 2-1 2-1 2 3 2 3 2-1 2-1h4l2-2h2l2 1 2 3 2-1 2-3 2 4 2-2h2l2-2 2-1 2 3h4l2-2 2 1 2 2 2-1h2l2 2 2-2 2-1 2 2 2 1h2l2 1 2-1 2 2 2-1h4l2 2 2-1 2 1 2-1 2-1 2 1 2 1 2 1h6l2 1 2-1 2 1 2 1 2-1h2l2-1 2 1h6l2-2h8l2 1 2-2 2 2 2-2 2-2 2 1 2-3 2 1h2l2-1 2 1 2-2h4l2-1 2 1 2-1 2 2h4l2 1 2 2 2-1 2 1 2-1h4l2 1 2 1 2-1 2-2 2 1h2l2-1 2 1 2 1 2 1 2-1 2 1 2-1h2l2 1h6l2-2 2 1 2-2 2 2 2-1h2l2 1h2l2-1h2l2-1 2 1 2-2 2 1 2 1 2-1 2 1 2-1 2-3 2-1h2l2 1 2 1 2-4 2 1 2-1 2-3 2-1h6l2 1 2-4 2-5 2 4 2-1 2 2h2l2-2 2 6h2l2-2 2-2 2 3 2 3 2 3 2 1 2 3 2 2h2l2 1 2 1 2 1 2-2 2-5 2-2 2-1 2-1 2 2 2-1 2-2 2-3h2l2-1 2 2h2l2-1h2l2 2 2 2 2 1 2-6 2-1h2l2 1 2 4 2-2h2l2 1h2l2 1 2 1 2 2 2 2 2-1 2-3 2-1 2-1 2 2 2 1 2 3 2 1 2 2h2l2 1h4l2 2 2 2 2-1h2l2 2h2l2-1 2 1h4l2 1h2l2-1h4l2 1h4l2-1 2 1h6l2 1h6l2 1h4l2-1h2l2 1h2l2 1 2-1h2l2 1 2-1h2l2 1h12l2 1 2-1h6l2 1 2-1h8l2 1h4l2-1h4l2 1h52-52l-2 1h-4l-2-1h-4l-2 1h-8l-2-1-2 1h-6l-2-1-2 1h-12l-2 1h-2l-2-1-2 1h-2l-2-1-2 1h-2l-2 1h-2l-2-1h-4l-2 1h-6l-2 1h-6l-2 1-2-1h-4l-2 1h-4l-2-1h-2l-2 1h-4l-2 1-2-1h-2l-2 2h-2l-2-1-2 2-2 2h-4l-2 1h-2l-2 2-2 1-2 3-2 1-2 2-2-1-2-1-2-3-2-1-2 2-2 2-2 1-2 1h-2l-2 1h-2l-2-2-2 4-2 1h-2l-2-1-2-6-2 1-2 2-2 2h-2l-2-1h-2l-2 2-2-1h-2l-2-3-2-2-2-1-2 2-2-1-2-1-2-2-2-5-2-2-2 1-2 1-2 1h-2l-2 2-2 3-2 1-2 3-2 3-2 3-2-2-2-2h-2l-2 6-2-2h-2l-2 2-2-1-2 4-2-5-2-4-2 1h-6l-2-1-2-3-2-1-2 1-2-4-2 1-2 1h-2l-2-1-2-3-2-1-2 1-2-1-2 1-2 1-2-2-2 1-2-1h-2l-2-1h-2l-2 1h-2l-2-1-2 2-2-2-2 1-2-2h-6l-2 1h-2l-2-1-2 1-2-1-2 1-2 1-2 1-2-1h-2l-2 1-2-2-2-1-2 1-2 1h-4l-2-1-2 1-2-1-2 2-2 1h-4l-2 2-2-1-2 1-2-1h-4l-2-2-2 1-2-1h-2l-2 1-2-3-2 1-2-2-2-2-2 2-2-2-2 1h-8l-2-2h-6l-2 1-2-1h-2l-2-1-2 1-2 1-2-1-2 1h-6l-2 1-2 1-2 1-2-1-2-1-2 1-2-1-2 2h-4l-2-1-2 2-2-1-2 1h-2l-2 1-2 2-2-1-2-2-2 2h-2l-2-1-2 2-2 1-2-2h-4l-2 3-2-1-2-2h-2l-2-2-2 4-2-3-2-1-2 3-2 1h-2l-2-2h-4l-2-1-2-1-2 3-2 3-2-1-2-1-2 2-2 2h-4l-2 3-2 3-2-2-2 2-2-3-2-1-2-3-2 1-2 1-2-1-2-1h-2l-2 1-2-1-2 5h-2l-2-1-2 3-2-2-2 1h-2l-2-4h-2l-2 1-2 3-2-3-2-3-2-1h-2l-2-1-2-4-2 1-2-2h-4l-2-1-2 1-2-2-2 3-2-4-2 1-2-1h-2l-2-1-2 1h-4l-2-2h-2l-2 1-2 1-2-4-2 1h-4l-2-1-2 1-2-1-2 1-2-1-2 1-2 7h-2l-2-3-2-3-2 1-2 2h-4l-2-2-2 4-2 3-2 2-2 1h-2l-2-7-2-2-2 2-2 3-2 12-2 4-2 2-2 2-2-1-2-1h-2l-2 6-2-1-2 2-2-3-2 3-2 2-2-4-2 1-2-2-2-2-2 3-2-7-2-1-2-1-2 3-2-2-2-3-2-2-2-3-2 1-2-2-2-4-2 1-2-3-2-1-2-2-2 2h-2l-2-3-2 3-2-1-2-3h-2l-2 1-2-1-2-1-2-2-2-1-2-1h-2l-2 1-2-1h-4l-2 2-2-1h-2l-2-1h-4l-2 1-2 2-2-3-2 1-2-1-2 2-2-3-2 1-2-1h-2l-2 1-2-1h-8l-2-1H78l-2-1h-2l-2 1h-2l-2-1h-2l-2 1-2-1-2 1H42l-2-1H0z"/></svg>