<svg viewBox="0 0 1000 500" xmlns="http://www.w3.org/2000/svg"><path stroke="#000" stroke-width=".5" d="M0 250h18l2-1h6l2 1h4l2-1h2l2 1h2l2-1 2-1h4l2 1h4l2-1h2l2 1 2 1 2-1 2 1h2l2-1h2l2 1h2l2-1h12l2-1h4l2 1 2-1h8l2-2 2 1h2l2-1 2 1 2 1h6l2-1 2-1h2l2 1 2 1h4l2-1 2 1 2-2 2-1 2-3 2 1 2-1 2 1 2-2 2 1 2 1 2-1h2l2-2h2l2-1 2-4 2-3 2-1 2-2 2-1 2-5 2-1 2-6 2 4 2-5 2 3 2-1 2-1 2 1 2-3 2 5 2-6 2 1 2-1 2-3 2 1 2 1 2-4 2 1h2l2-2 2 3 2-2 2 7h2l2 7 2 7 2 5 2 8h2l2-8 2-5h2l2 2 2 6 2 7h2l2-2 2 1h4l2-4 2-2 2-1 2 7 2 3h2l2-1 2 2 2-1 2-2 2-2 2 2 2 1 2-3h2l2 1 2 1 2-1 2-2h2l2-2 2 1 2 1 2-4h4l2 1 2-2 2 1 2-1 2-2 2 1 2-1 2-1 2-1h2l2-4 2-5 2-1 2-2 2-1 2 2 2-3 2 3 2-2h2l2 6 2 2 2 1 2 3 2-1 2-1 2 1 2 1 2-2 2-2 2-1 2 3 2-3h2l2 2 2 3 2-2h2l2-2 2-1 2 2 2 2 2 3h2l2 1h4l2 1 2 1 2 1h2l2 1 2-2h2l2 1 2 1h2l2 1 2-2 2 1 2 1 2-1 2 1 2-1h2l2-1 2-1h2l2 1 2-1 2 2 2-1 2 1 2 1h4l2-1h2l2-1 2 1h2l2 2h2l2 1h2l2-1h4l2 2h2l2 1 2 1h10l2-1 2 1 2-1h2l2-1h2l2-1 2-1h2l2-1 2 1 2-2 2 1 2-1h6l2-2 2 1 2-1 2 2 2-2 2 1 2-2h2l2-1 2-1 2 1 2-1 2 1h2l2 1h8l2 1h4l2 1h6l2-1 2 1 2 1 2-2 2 1h2l2-1 2 1 2-1 2 1h2l2 1 2-1h8l2-1h2l2 2 2-1h2l2-2 2 2 2-2 2 1 2-1 2 2 2-2 2 2 2-1 2 2 2-4h2l2 2 2 3 2-4 2-3 2-2 2 1h2l2-3 2-7h2l2-3 2 2 2-2 2-2h4l2 4 2 2 2 6 2-2 2 3 2 5 2-4 2-3 2 10 2 1 2-2 2 3 2 1h2l2 1 2 2h2l2-4 2-3 2-4 2-1 2-5 2 3 2-3 2 1 2-2 2-5 2 1h2l2 4h2l2 2 2 5 2-1 2 2 2-4 2-1 2-1 2-4 2 8 2-6 2 5 2-7 2 3h4l2 3 2 2 2 2 2-1 2 2 2-5 2 3 2-1 2 2 2 1 2 2h2l2 2h2l2-1 2 3 2-1 2 1h2l2 1 2 2h2l2 1h6l2 1 2-1h10l2 1 2-1 2 1h2l2 1h4l2 1h6l2 1 2-1h2l2-1 2 1 2 1h2l2-1h6l2 1h4l2-1 2 1h2l2-1 2 1 2 1h2l2-1 2 1h2l2 1 2-2 2-1 2 1h2l2 1 2 1 2-1 2-1h2l2 1 2 1h6l2-1h2l2 1h8l2-1h4l2 1 2-1h4l2 1h16-16l-2 1h-4l-2-1-2 1h-4l-2-1h-8l-2 1h-2l-2-1h-6l-2 1-2 1h-2l-2-1-2-1-2 1-2 1h-2l-2 1-2-1-2-2-2 1h-2l-2 1-2-1h-2l-2 1-2 1-2-1h-2l-2 1-2-1h-4l-2 1h-6l-2-1h-2l-2 1-2 1-2-1h-2l-2-1-2 1h-6l-2 1h-4l-2 1h-2l-2 1-2-1-2 1h-10l-2-1-2 1h-6l-2 1h-2l-2 2-2 1h-2l-2 1-2-1-2 3-2-1h-2l-2 2h-2l-2 2-2 1-2 2-2-1-2 3-2-5-2 2-2-1-2 2-2 2-2 3h-4l-2 3-2-7-2 5-2-6-2 8-2-4-2-1-2-1-2-4-2 2-2-1-2 5-2 2h-2l-2 4h-2l-2 1-2-5-2-2-2 1-2-3-2 3-2-5-2-1-2-4-2-3-2-4h-2l-2 2-2 1h-2l-2 1-2 3-2-2-2 1-2 10-2-3-2-4-2 5-2 3-2-2-2 6-2 2-2 4h-4l-2-2-2-2-2 2-2-3h-2l-2-7-2-3h-2l-2 1-2-2-2-3-2-4-2 3-2 2h-2l-2-4-2 2-2-1-2 2-2-2-2 2-2-1-2 1-2-2-2 2-2-2h-2l-2-1-2 2h-2l-2-1h-8l-2-1-2 1h-2l-2 1-2-1-2 1-2-1h-2l-2 1-2-2-2 1-2 1-2-1h-6l-2 1h-4l-2 1h-8l-2 1h-2l-2 1-2-1-2 1-2-1-2-1h-2l-2-2-2 1-2-2-2 2-2-1-2 1-2-2h-6l-2-1-2 1-2-2-2 1-2-1h-2l-2-1-2-1h-2l-2-1h-2l-2-1-2 1-2-1h-10l-2 1-2 1h-2l-2 2h-4l-2-1h-2l-2 1h-2l-2 2h-2l-2 1-2-1h-2l-2-1h-4l-2 1-2 1-2-1-2 2-2-1-2 1h-2l-2-1-2-1h-2l-2-1-2 1-2-1-2 1-2 1-2-2-2 1h-2l-2 1-2 1h-2l-2-2-2 1h-2l-2 1-2 1-2 1h-4l-2 1h-2l-2 3-2 2-2 2-2-1-2-2h-2l-2-2-2 3-2 2h-2l-2-3-2 3-2-1-2-2-2-2-2 1-2 1-2-1-2-1-2 3-2 1-2 2-2 6h-2l-2-2-2 3-2-3-2 2-2-1-2-2-2-1-2-5-2-4h-2l-2-1-2-1-2-1-2 1-2-2-2-1-2 1-2-2-2 1h-4l-2-4-2 1-2 1-2-2h-2l-2-2-2-1-2 1-2 1h-2l-2-3-2 1-2 2-2-2-2-2-2-1-2 2-2-1h-2l-2 3-2 7-2-1-2-2-2-4h-4l-2 1-2-2h-2l-2 7-2 6-2 2h-2l-2-5-2-8h-2l-2 8-2 5-2 7-2 7h-2l-2 7-2-2-2 3-2-2h-2l-2 1-2-4-2 1-2 1-2-3-2-1-2 1-2-6-2 5-2-3-2 1-2-1-2-1-2 3-2-5-2 4-2-6-2-1-2-5-2-1-2-2-2-1-2-3-2-4-2-1h-2l-2-2h-2l-2-1-2 1-2 1-2-2-2 1-2-1-2 1-2-3-2-1-2-2-2 1-2-1h-4l-2 1-2 1h-2l-2-1-2-1h-6l-2 1-2 1-2-1h-2l-2 1-2-2h-8l-2-1-2 1h-4l-2-1H78l-2-1h-2l-2 1h-2l-2-1h-2l-2 1-2-1-2 1-2 1h-2l-2-1h-4l-2 1h-4l-2-1-2-1h-2l-2 1h-2l-2-1h-4l-2 1h-6l-2-1H2z"/></svg>